<svg width="512" height="512" viewBox="0 0 512 512" fill="none" xmlns="http://www.w3.org/2000/svg">
<mask id="mask0_26_103" style="mask-type:alpha" maskUnits="userSpaceOnUse" x="0" y="0" width="512" height="512">
<circle cx="256" cy="256" r="249.298" fill="#D9D9D9" stroke="white" stroke-width="13.4031"/>
</mask>
<g mask="url(#mask0_26_103)">
<circle cx="256" cy="256" r="249.298" fill="white" stroke="#232323" stroke-width="13.4031"/>
<path d="M256.531 75.0576L281.367 11.7278H231.695L256.531 75.0576Z" fill="#E40C0C"/>
<path d="M395.253 207.818C395.253 225.714 390.883 241.529 382.143 255.263C373.819 268.581 362.582 278.777 348.432 285.852C334.698 292.927 320.132 296.465 304.733 296.465C288.502 296.465 273.103 292.303 258.537 283.979L259.785 278.361L270.398 278.985L281.011 278.361C297.242 275.864 309.935 268.581 319.091 256.511C328.247 244.026 332.825 227.587 332.825 207.194C332.825 184.304 327.623 165.159 317.218 149.761C307.23 133.946 293.288 126.038 275.392 126.038C265.82 126.038 258.745 128.744 254.167 134.154C250.005 139.564 247.924 145.599 247.924 152.258V326.43C247.924 343.077 249.173 356.187 251.67 365.759C254.583 375.331 259.577 384.903 266.652 394.475L271.647 401.967L266.652 408.209H158.029L153.659 396.973C164.48 394.059 171.971 391.354 176.133 388.857C180.711 386.36 183.832 382.822 185.497 378.244C187.162 373.666 187.994 366.383 187.994 356.395V190.338C187.994 175.772 186.746 164.743 184.249 157.252C182.168 149.345 176.965 142.894 168.642 137.9L161.15 133.53L163.648 125.414C175.717 121.669 191.324 118.339 210.468 115.426C230.028 112.513 248.549 111.056 266.028 111.056C308.479 111.056 340.525 120.004 362.166 137.9C384.224 155.379 395.253 178.685 395.253 207.818Z" fill="#232323"/>
</g>
</svg>
